PathFileType	3	(X/Y/Z)	C:\Users\koon_\Desktop\
DataRate	CameraRate	NumFrames	NumMarkers	Units	OrigDataRate	OrigDataStartFrame	OrigNumFrames
100.0	100.0	8	27	mm	100.0	2440	2788	
Frame#	Time	get:LFHD			get:RFHD			get:LBHD			get:RBHD			get:C7			get:T10			get:CLAV			get:STRN			get:RBAK			get:LSHO			get:LUPA			get:LELB			get:LFRA			get:LWRA			get:LWRB			get:LFIN			get:RSHO			get:RUPA			get:RELB			get:RFRA			get:RWRA			get:RWRB			get:RFIN			get:LASI			get:RASI			get:LPSI			get:RPSI			
		X1	Y1	Z1	X2	Y2	Z2	X3	Y3	Z3	X4	Y4	Z4	X5	Y5	Z5	X6	Y6	Z6	X7	Y7	Z7	X8	Y8	Z8	X9	Y9	Z9	X10	Y10	Z10	X11	Y11	Z11	X12	Y12	Z12	X13	Y13	Z13	X14	Y14	Z14	X15	Y15	Z15	X16	Y16	Z16	X17	Y17	Z17	X18	Y18	Z18	X19	Y19	Z19	X20	Y20	Z20	X21	Y21	Z21	X22	Y22	Z22	X23	Y23	Z23	X24	Y24	Z24	X25	Y25	Z25	X26	Y26	Z26	X27	Y27	Z27	
2440	24.39	70.915466	1515.8657	-158.63431	-75.445244	1524.6583	-153.43176	63.292435	1506.1544	-296.66061	-88.22773	1509.3558	-286.08615	-24.340832	1287.9679	-318.52332	-23.11595	1066.5437	-306.1463	1.0532634	1237.9119	-114.07517	5.7459245	1097.5466	-38.528568	-112.35551	1208.8794	-319.18579	142.30893	1291.479	-270.2674	225.4015	1095.6191	-200.58661	248.84358	976.12738	-245.06387	276.48038	938.23798	-156.67125	280.46976	773.17456	-95.568382	333.78683	774.72369	-148.6185	342.06708	708.87549	-101.80112	-151.4171	1311.374	-213.76688	-234.27795	1199.6494	-176.09544	-282.25793	983.03351	-194.09155	-303.80701	877.16296	-69.839417	-315.90292	790.15924	-31.371403	-354.6532	789.39594	-96.514297	-365.93839	731.16821	-23.160482	142.47798	908.30048	-76.39782	-152.50641	915.67554	-45.267738	28.500443	898.8418	-253.70088	-58.458797	897.33716	-246.89456
2441	24.4	70.951286	1516.7206	-155.19025	-75.458145	1525.0555	-149.96696	63.460602	1507.5175	-293.14368	-88.116302	1510.2412	-282.6875	-23.682907	1289.396	-316.0274	-22.568054	1068.004	-305.81686	1.4802419	1238.038	-111.99573	5.982482	1097.0704	-37.447304	-111.89432	1210.5251	-317.48441	142.73933	1292.672	-267.66339	227.1945	1097.2701	-198.50211	252.31561	978.20929	-243.37653	280.60468	940.97601	-154.5941	287.00638	776.45679	-92.730507	339.789	778.08258	-146.26735	349.2742	712.7442	-99.118851	-150.74298	1312.2866	-211.33507	-234.63318	1201.1696	-174.37166	-285.15955	985.32263	-193.2377	-309.71689	880.02704	-69.141258	-323.57855	793.50116	-30.4137	-361.09705	792.56348	-95.998634	-374.47314	735.10632	-22.733027	142.51334	908.26038	-76.333366	-152.37134	915.83221	-45.238091	28.601109	899.50238	-253.69347	-58.382915	898.02197	-246.85927
2442	24.41	70.957123	1517.5823	-151.6497	-75.479309	1525.4792	-146.53401	63.598022	1508.8059	-289.69061	-88.002029	1511.053	-279.30328	-23.052284	1290.8297	-313.62756	-22.109577	1069.548	-305.07324	1.8132994	1238.1239	-109.90984	6.1709929	1096.6477	-36.501637	-111.43227	1212.0703	-315.62949	143.24362	1293.8774	-264.96701	229.0298	1098.9781	-196.38206	255.86478	980.44537	-241.44936	285.05731	943.8996	-152.49255	293.99194	780.08783	-89.704094	346.07855	781.73553	-143.79582	356.92459	716.99408	-96.412102	-150.12663	1313.171	-208.8759	-235.01231	1202.7302	-172.61368	-288.22318	987.62079	-192.2388	-315.99109	883.25525	-68.309044	-331.69772	797.21301	-29.315996	-368.28983	796.61432	-96.050293	-383.60629	739.62274	-22.515055	142.59503	908.22205	-76.242889	-152.21347	915.9386	-45.291828	28.69035	900.0108	-253.52824	-58.190659	898.7821	-246.95619
2443	24.42	71.001526	1518.4078	-148.18231	-75.524628	1525.8264	-143.15778	63.734158	1510.0852	-286.22336	-87.886734	1511.7902	-275.89999	-22.418249	1292.1482	-311.06012	-21.773609	1070.8594	-303.49731	2.2284908	1238.218	-107.72586	6.3789129	1096.1648	-35.433132	-110.9276	1213.5365	-313.77609	143.72527	1295.1132	-262.28717	230.81335	1100.7617	-194.34019	259.46564	982.98846	-238.89972	289.74316	947.07037	-150.39349	301.42023	784.07068	-86.513313	352.67065	785.66614	-141.43028	365.02029	721.66821	-93.59948	-149.45018	1314.0331	-206.50313	-235.46542	1204.342	-170.98978	-291.43481	990.05139	-191.23041	-322.54691	886.77075	-67.475616	-340.18765	801.30505	-28.143276	-375.54877	800.58289	-95.610413	-393.10294	744.58765	-21.866552	142.65979	908.16437	-76.129738	-152.11711	916.05499	-45.32309	28.833538	900.54871	-253.34984	-58.108719	899.39545	-246.94019
2444	24.43	70.989571	1519.1652	-144.62836	-75.52713	1526.1495	-139.74617	63.876389	1511.2964	-282.72812	-87.761337	1512.5365	-272.48157	-21.794359	1293.4264	-308.62274	-21.189848	1072.0442	-302.74783	2.5987828	1238.2924	-105.60178	6.5507584	1095.6682	-34.490173	-110.38777	1215.0082	-312.07462	144.19574	1296.3325	-259.60989	232.9035	1102.5739	-192.29195	263.22345	985.4679	-236.74828	294.60922	950.4184	-148.22003	309.24796	788.33215	-83.108063	359.59448	789.9259	-138.85611	373.6033	726.71625	-90.730484	-148.78271	1314.8817	-204.21759	-235.81931	1205.9576	-169.19357	-294.76108	992.63245	-190.37459	-329.43152	890.56775	-66.59565	-349.04398	805.85004	-26.881056	-383.01498	804.86169	-95.064308	-403.01682	749.95734	-21.087608	142.69699	908.10626	-75.961464	-152.04008	916.15027	-45.35733	28.999704	901.24585	-253.35916	-57.901913	900.08966	-247.05617
2445	24.44	70.967117	1519.9214	-141.16809	-75.545822	1526.4476	-136.36259	64.063576	1512.5317	-279.28604	-87.549164	1513.2592	-269.17831	-21.155006	1294.7058	-306.1871	-20.804459	1073.6169	-301.71182	2.975476	1238.3883	-103.48606	6.7412591	1095.2007	-33.434395	-109.88815	1216.4167	-310.16418	144.69606	1297.5516	-256.82104	234.80026	1104.3295	-190.26337	267.04391	988.00287	-234.53427	299.73306	954.03516	-146.09515	317.39536	792.98462	-79.659775	366.7323	794.42334	-136.4821	382.48639	732.12225	-87.763969	-148.09532	1315.6768	-201.77158	-236.24556	1207.6073	-167.48213	-298.26898	995.2074	-189.34508	-336.50378	894.80194	-65.660622	-358.173	810.78735	-25.508621	-390.68536	809.49835	-94.430328	-413.3497	756.00256	-20.695948	142.71593	908.06934	-75.740898	-151.90291	916.25977	-45.33606	29.25639	901.97589	-253.4774	-57.745934	900.69788	-246.92775
2446	24.45	70.967392	1520.6274	-137.59317	-75.55394	1526.687	-132.99434	64.222038	1513.7198	-275.78699	-87.402702	1513.9645	-265.97638	-20.472223	1295.9528	-303.7236	-20.258228	1074.9213	-300.6543	3.2824469	1238.4314	-101.49151	6.927938	1094.7458	-32.443634	-109.29759	1217.8829	-308.53299	145.11508	1298.7722	-254.16663	237.13606	1106.584	-188.32541	270.92465	990.52679	-232.43546	305.02597	957.86938	-144.00394	325.76932	797.95465	-76.061226	374.27588	799.26514	-133.80205	391.60916	737.96002	-84.681068	-147.43063	1316.4716	-199.48131	-236.62752	1209.2662	-165.77429	-301.76367	997.98492	-188.44926	-343.8804	899.30255	-64.76355	-367.54333	816.20551	-23.923332	-398.60367	814.44989	-93.729469	-423.86493	762.50775	-20.042606	142.71051	908.01093	-75.478912	-151.86159	916.3045	-45.400364	29.409313	902.16071	-252.57877	-57.517105	901.36047	-246.96419
2447	24.46	70.976799	1521.2902	-134.12021	-75.584587	1526.927	-129.67274	64.403404	1514.8505	-272.32935	-87.274208	1514.6732	-262.65906	-19.827137	1297.2507	-301.42459	-19.615881	1076.0894	-299.91583	3.6334016	1238.4742	-99.39505	7.0996385	1094.328	-31.518314	-108.67665	1219.1606	-306.63904	145.60208	1299.9786	-251.4543	239.95651	1109.1694	-186.358	274.83755	993.22937	-230.18353	310.14285	961.93298	-141.72998	334.40442	803.26001	-72.369049	381.94946	804.41357	-130.93257	401.04196	744.20251	-81.228287	-146.74464	1317.233	-197.23656	-237.09392	1210.9622	-164.18564	-305.32285	1000.9188	-187.52509	-351.27951	904.17389	-63.801243	-377.1091	822.06805	-22.387856	-406.74124	819.80591	-92.917778	-434.70795	769.50513	-19.088356	142.77547	907.96161	-75.235039	-151.78738	915.89984	-46.444862	29.662661	902.78644	-252.48959	-57.257328	901.9035	-246.86035
